# xmcd
#
# Track frame offsets:
# 150
# 16930
# 31355
# 52140
# 67095
# 84000
# 97870
# 112135
# 125845
# 143875
#
# Disc length: 2125 seconds
#
#
# Revision: 0
# Processed by: cddbd v1.4PL0 Copyright (c) Steve Scherf et al.
# Submitted via: FreeRIP 2.10 
#
DISCID=88084b0a
DTITLE=Pete Special Trio - This Town
DYEAR=2002
DGENRE=Blues
TTITLE0=Grits Ain't Groceries
TTITLE1=Mississippi
TTITLE2=Ode to Billy Joe
TTITLE3=Rhumba Man
TTITLE4=Blues For No One There
TTITLE5=Voodoo Woman
TTITLE6=Perfect Woman
TTITLE7=It's Over
TTITLE8=Bad Dog
TTITLE9=Grandma's Hands
EXTD=
EXTT0=
EXTT1=
EXTT2=
EXTT3=
EXTT4=
EXTT5=
EXTT6=
EXTT7=
EXTT8=
EXTT9=
PLAYORDER=
